<svg width="98" height="24" viewBox="0 0 98 24" fill="none" xmlns="http://www.w3.org/2000/svg">
<g id="Group 108">
<g id="dark_mode">
<mask id="mask0_254_9939" style="mask-type:alpha" maskUnits="userSpaceOnUse" x="74" y="0" width="24" height="24">
<rect id="Bounding box" x="74" width="24" height="24" fill="url(#paint0_linear_254_9939)"/>
</mask>
<g mask="url(#mask0_254_9939)">
<path id="dark_mode_2" d="M86 21C83.5 21 81.375 20.125 79.625 18.375C77.875 16.625 77 14.5 77 12C77 9.5 77.875 7.375 79.625 5.625C81.375 3.875 83.5 3 86 3C86.2333 3 86.4625 3.00833 86.6875 3.025C86.9125 3.04167 87.1333 3.06667 87.35 3.1C86.6667 3.58333 86.1208 4.2125 85.7125 4.9875C85.3042 5.7625 85.1 6.6 85.1 7.5C85.1 9 85.625 10.275 86.675 11.325C87.725 12.375 89 12.9 90.5 12.9C91.4167 12.9 92.2583 12.6958 93.025 12.2875C93.7917 11.8792 94.4167 11.3333 94.9 10.65C94.9333 10.8667 94.9583 11.0875 94.975 11.3125C94.9917 11.5375 95 11.7667 95 12C95 14.5 94.125 16.625 92.375 18.375C90.625 20.125 88.5 21 86 21ZM86 19C87.4667 19 88.7833 18.5958 89.95 17.7875C91.1167 16.9792 91.9667 15.925 92.5 14.625C92.1667 14.7083 91.8333 14.775 91.5 14.825C91.1667 14.875 90.8333 14.9 90.5 14.9C88.45 14.9 86.7042 14.1792 85.2625 12.7375C83.8208 11.2958 83.1 9.55 83.1 7.5C83.1 7.16667 83.125 6.83333 83.175 6.5C83.225 6.16667 83.2917 5.83333 83.375 5.5C82.075 6.03333 81.0208 6.88333 80.2125 8.05C79.4042 9.21667 79 10.5333 79 12C79 13.9333 79.6833 15.5833 81.05 16.95C82.4167 18.3167 84.0667 19 86 19Z" fill="url(#paint1_linear_254_9939)"/>
</g>
</g>
<g id="light_mode">
<mask id="mask1_254_9939" style="mask-type:alpha" maskUnits="userSpaceOnUse" x="0" y="0" width="24" height="24">
<rect id="Bounding box_2" width="24" height="24" fill="url(#paint2_linear_254_9939)"/>
</mask>
<g mask="url(#mask1_254_9939)">
<path id="light_mode_2" d="M12 15C12.8333 15 13.5417 14.7083 14.125 14.125C14.7083 13.5417 15 12.8333 15 12C15 11.1667 14.7083 10.4583 14.125 9.875C13.5417 9.29167 12.8333 9 12 9C11.1667 9 10.4583 9.29167 9.875 9.875C9.29167 10.4583 9 11.1667 9 12C9 12.8333 9.29167 13.5417 9.875 14.125C10.4583 14.7083 11.1667 15 12 15ZM12 17C10.6167 17 9.4375 16.5125 8.4625 15.5375C7.4875 14.5625 7 13.3833 7 12C7 10.6167 7.4875 9.4375 8.4625 8.4625C9.4375 7.4875 10.6167 7 12 7C13.3833 7 14.5625 7.4875 15.5375 8.4625C16.5125 9.4375 17 10.6167 17 12C17 13.3833 16.5125 14.5625 15.5375 15.5375C14.5625 16.5125 13.3833 17 12 17ZM2 13C1.71667 13 1.47917 12.9042 1.2875 12.7125C1.09583 12.5208 1 12.2833 1 12C1 11.7167 1.09583 11.4792 1.2875 11.2875C1.47917 11.0958 1.71667 11 2 11H4C4.28333 11 4.52083 11.0958 4.7125 11.2875C4.90417 11.4792 5 11.7167 5 12C5 12.2833 4.90417 12.5208 4.7125 12.7125C4.52083 12.9042 4.28333 13 4 13H2ZM20 13C19.7167 13 19.4792 12.9042 19.2875 12.7125C19.0958 12.5208 19 12.2833 19 12C19 11.7167 19.0958 11.4792 19.2875 11.2875C19.4792 11.0958 19.7167 11 20 11H22C22.2833 11 22.5208 11.0958 22.7125 11.2875C22.9042 11.4792 23 11.7167 23 12C23 12.2833 22.9042 12.5208 22.7125 12.7125C22.5208 12.9042 22.2833 13 22 13H20ZM12 5C11.7167 5 11.4792 4.90417 11.2875 4.7125C11.0958 4.52083 11 4.28333 11 4V2C11 1.71667 11.0958 1.47917 11.2875 1.2875C11.4792 1.09583 11.7167 1 12 1C12.2833 1 12.5208 1.09583 12.7125 1.2875C12.9042 1.47917 13 1.71667 13 2V4C13 4.28333 12.9042 4.52083 12.7125 4.7125C12.5208 4.90417 12.2833 5 12 5ZM12 23C11.7167 23 11.4792 22.9042 11.2875 22.7125C11.0958 22.5208 11 22.2833 11 22V20C11 19.7167 11.0958 19.4792 11.2875 19.2875C11.4792 19.0958 11.7167 19 12 19C12.2833 19 12.5208 19.0958 12.7125 19.2875C12.9042 19.4792 13 19.7167 13 20V22C13 22.2833 12.9042 22.5208 12.7125 22.7125C12.5208 22.9042 12.2833 23 12 23ZM5.65 7.05L4.575 6C4.375 5.81667 4.27917 5.58333 4.2875 5.3C4.29583 5.01667 4.39167 4.775 4.575 4.575C4.775 4.375 5.01667 4.275 5.3 4.275C5.58333 4.275 5.81667 4.375 6 4.575L7.05 5.65C7.23333 5.85 7.325 6.08333 7.325 6.35C7.325 6.61667 7.23333 6.85 7.05 7.05C6.86667 7.25 6.6375 7.34583 6.3625 7.3375C6.0875 7.32917 5.85 7.23333 5.65 7.05ZM18 19.425L16.95 18.35C16.7667 18.15 16.675 17.9125 16.675 17.6375C16.675 17.3625 16.7667 17.1333 16.95 16.95C17.1333 16.75 17.3625 16.6542 17.6375 16.6625C17.9125 16.6708 18.15 16.7667 18.35 16.95L19.425 18C19.625 18.1833 19.7208 18.4167 19.7125 18.7C19.7042 18.9833 19.6083 19.225 19.425 19.425C19.225 19.625 18.9833 19.725 18.7 19.725C18.4167 19.725 18.1833 19.625 18 19.425ZM16.95 7.05C16.75 6.86667 16.6542 6.6375 16.6625 6.3625C16.6708 6.0875 16.7667 5.85 16.95 5.65L18 4.575C18.1833 4.375 18.4167 4.27917 18.7 4.2875C18.9833 4.29583 19.225 4.39167 19.425 4.575C19.625 4.775 19.725 5.01667 19.725 5.3C19.725 5.58333 19.625 5.81667 19.425 6L18.35 7.05C18.15 7.23333 17.9167 7.325 17.65 7.325C17.3833 7.325 17.15 7.23333 16.95 7.05ZM4.575 19.425C4.375 19.225 4.275 18.9833 4.275 18.7C4.275 18.4167 4.375 18.1833 4.575 18L5.65 16.95C5.85 16.7667 6.0875 16.675 6.3625 16.675C6.6375 16.675 6.86667 16.7667 7.05 16.95C7.25 17.1333 7.34583 17.3625 7.3375 17.6375C7.32917 17.9125 7.23333 18.15 7.05 18.35L6 19.425C5.81667 19.625 5.58333 19.7208 5.3 19.7125C5.01667 19.7042 4.775 19.6083 4.575 19.425Z" fill="url(#paint3_linear_254_9939)"/>
</g>
</g>
<g id="Group 50">
<rect id="Rectangle 59" x="29" y="2" width="40" height="20" rx="10" fill="#041A39"/>
<rect id="Rectangle 60" x="33" y="5" width="14" height="14" rx="7" fill="white"/>
</g>
</g>
<defs>
<linearGradient id="paint0_linear_254_9939" x1="86" y1="0" x2="86" y2="24" gradientUnits="userSpaceOnUse">
<stop offset="0.197917" stop-color="#009AFF"/>
<stop offset="1" stop-color="#8CA5FF"/>
</linearGradient>
<linearGradient id="paint1_linear_254_9939" x1="86" y1="3" x2="86" y2="21" gradientUnits="userSpaceOnUse">
<stop offset="0.197917" stop-color="#009AFF"/>
<stop offset="1" stop-color="#8CA5FF"/>
</linearGradient>
<linearGradient id="paint2_linear_254_9939" x1="12" y1="0" x2="12" y2="24" gradientUnits="userSpaceOnUse">
<stop offset="0.197917" stop-color="#009AFF"/>
<stop offset="1" stop-color="#8CA5FF"/>
</linearGradient>
<linearGradient id="paint3_linear_254_9939" x1="12" y1="1" x2="12" y2="23" gradientUnits="userSpaceOnUse">
<stop offset="0.197917" stop-color="#009AFF"/>
<stop offset="1" stop-color="#8CA5FF"/>
</linearGradient>
</defs>
</svg>
