<svg width="10px" height="10px" viewBox="0 0 8 8" fill="none" xmlns="http://www.w3.org/2000/svg">
<g id="info">
<mask id="mask0_242_794" style="mask-type:alpha" maskUnits="userSpaceOnUse" x="0" y="0" width="8" height="8">
<rect id="Bounding box" width="8" height="8" fill="black"/>
</mask>
<g mask="url(#mask0_242_794)">
<path id="info_2" d="M3.66699 5.66699H4.33366V3.66699H3.66699V5.66699ZM4.00033 3.00033C4.09477 3.00033 4.17394 2.96838 4.23783 2.90449C4.30171 2.8406 4.33366 2.76144 4.33366 2.66699C4.33366 2.57255 4.30171 2.49338 4.23783 2.42949C4.17394 2.3656 4.09477 2.33366 4.00033 2.33366C3.90588 2.33366 3.82671 2.3656 3.76283 2.42949C3.69894 2.49338 3.66699 2.57255 3.66699 2.66699C3.66699 2.76144 3.69894 2.8406 3.76283 2.90449C3.82671 2.96838 3.90588 3.00033 4.00033 3.00033ZM4.00033 7.33366C3.53921 7.33366 3.10588 7.24616 2.70033 7.07116C2.29477 6.89616 1.94199 6.65866 1.64199 6.35866C1.34199 6.05866 1.10449 5.70588 0.929492 5.30033C0.754492 4.89477 0.666992 4.46144 0.666992 4.00033C0.666992 3.53921 0.754492 3.10588 0.929492 2.70033C1.10449 2.29477 1.34199 1.94199 1.64199 1.64199C1.94199 1.34199 2.29477 1.10449 2.70033 0.929492C3.10588 0.754492 3.53921 0.666992 4.00033 0.666992C4.46144 0.666992 4.89477 0.754492 5.30033 0.929492C5.70588 1.10449 6.05866 1.34199 6.35866 1.64199C6.65866 1.94199 6.89616 2.29477 7.07116 2.70033C7.24616 3.10588 7.33366 3.53921 7.33366 4.00033C7.33366 4.46144 7.24616 4.89477 7.07116 5.30033C6.89616 5.70588 6.65866 6.05866 6.35866 6.35866C6.05866 6.65866 5.70588 6.89616 5.30033 7.07116C4.89477 7.24616 4.46144 7.33366 4.00033 7.33366ZM4.00033 6.66699C4.74477 6.66699 5.37533 6.40866 5.89199 5.89199C6.40866 5.37533 6.66699 4.74477 6.66699 4.00033C6.66699 3.25588 6.40866 2.62533 5.89199 2.10866C5.37533 1.59199 4.74477 1.33366 4.00033 1.33366C3.25588 1.33366 2.62533 1.59199 2.10866 2.10866C1.59199 2.62533 1.33366 3.25588 1.33366 4.00033C1.33366 4.74477 1.59199 5.37533 2.10866 5.89199C2.62533 6.40866 3.25588 6.66699 4.00033 6.66699Z" fill="black" fill-opacity="0.5"/>
</g>
</g>
</svg>
