<svg width="263" height="88" viewBox="0 0 263 88" fill="none" xmlns="http://www.w3.org/2000/svg">
<g clip-path="url(#clip0_244_2157)">
<path d="M136.58 15.8999C136.58 11.5099 136.57 7.10992 136.58 2.71992C136.58 0.849922 136.61 0.809922 138.36 0.809922C145.71 0.789922 153.07 0.789922 160.42 0.809922C162.17 0.809922 162.2 0.849922 162.2 2.72992C162.21 6.04992 162.36 5.57992 159.42 5.58992C154.07 5.60992 148.71 5.58992 143.35 5.59992C141.52 5.59992 141.51 5.63992 141.48 7.44992C141.46 8.80992 141.52 10.1699 141.46 11.5199C141.41 12.5699 141.84 12.9199 142.86 12.9099C145.74 12.8699 148.61 12.8999 151.49 12.8999C154.53 12.8999 157.57 12.9499 160.6 12.8799C161.84 12.8499 162.41 13.2599 162.27 14.5199C162.24 14.8399 162.27 15.1599 162.27 15.4799C162.24 17.5599 162.24 17.5799 160.14 17.5899C154.55 17.5999 148.95 17.5899 143.36 17.5999C141.52 17.5999 141.5 17.6399 141.48 19.4299C141.46 21.0299 141.45 22.6299 141.48 24.2199C141.51 25.9099 141.53 25.9599 143.24 25.9699C147.8 25.9999 152.35 25.9699 156.91 25.9699C158.11 25.9699 159.31 25.9699 160.51 25.9699C160.91 25.9699 161.41 25.8599 161.69 26.0499C163.02 26.9699 162.15 28.3699 162.34 29.5399C162.45 30.2399 162.18 30.8099 161.32 30.8199C161 30.8199 160.68 30.8399 160.36 30.8399C153.09 30.8399 145.81 30.8399 138.54 30.8399C136.61 30.8399 136.58 30.8099 136.58 28.8399C136.57 24.5299 136.58 20.2099 136.58 15.8999Z" fill="#00A3FF"/>
<path d="M54.2495 18.7704C57.3695 22.6404 60.4895 26.5304 63.9595 30.8404C61.6595 30.8404 59.8595 30.8404 58.0595 30.8404C57.2095 30.8404 56.8595 30.1404 56.4295 29.5804C54.1095 26.6304 51.7595 23.7004 49.5195 20.7004C48.7695 19.7004 47.9595 19.2804 46.7095 19.3204C43.8395 19.4004 40.9595 19.3904 38.0895 19.3204C36.8595 19.3004 36.3895 19.7104 36.4195 20.9804C36.4895 23.6904 36.3995 26.4104 36.4595 29.1204C36.4895 30.3304 36.1195 30.8204 34.8495 30.8004C30.8795 30.7304 31.5595 31.0104 31.5395 27.7204C31.5095 19.6604 31.5295 11.6004 31.5395 3.54038C31.5395 2.98038 31.5595 2.42038 31.5395 1.86038C31.5295 1.19038 31.7895 0.80038 32.5095 0.81038C32.6695 0.81038 32.8295 0.81038 32.9895 0.81038C39.3795 0.82038 45.7695 0.67038 52.1495 0.90038C59.0995 1.15038 62.9495 8.43038 59.5595 14.5504C58.7595 16.0004 57.5695 17.0004 56.0995 17.7304C55.4795 18.0404 54.6495 18.0004 54.2595 18.7604L54.2495 18.7704ZM44.8795 4.97038C42.5695 4.97038 40.2495 4.99038 37.9395 4.95038C36.8095 4.93038 36.3895 5.35038 36.4195 6.50038C36.4795 8.89038 36.4995 11.2904 36.4195 13.6804C36.3695 15.0204 36.9795 15.2704 38.1295 15.2604C42.1195 15.2204 46.1095 15.2604 50.0995 15.2604C50.9695 15.2604 51.8095 15.1404 52.6495 14.8204C55.1195 13.9004 56.3495 11.9204 55.9995 9.20038C55.6595 6.60038 54.0795 5.10038 51.3495 5.00038C49.1995 4.92038 47.0395 4.98038 44.8895 4.98038L44.8795 4.97038Z" fill="#00A3FF"/>
<path d="M200.62 24.2899C201.13 23.6399 201.85 23.4999 202.44 23.1499C204.02 22.2199 205.16 22.4699 206.67 23.6899C211.12 27.2999 216.3 27.5199 221.56 25.8699C224.31 25.0099 225.13 23.0399 224.56 20.5799C224.3 19.4799 223.79 18.9299 222.8 18.6099C220.07 17.7299 217.26 17.2899 214.4 17.1799C212.24 17.0899 210.1 16.8699 208.03 16.2099C206.64 15.7699 205.45 15.0399 204.38 14.0099C201.55 11.2699 202.11 4.21985 206.8 1.90985C208.76 0.949854 210.8 0.399854 212.95 0.169854C216.58 -0.210146 220.13 0.0198543 223.56 1.34985C226.16 2.35985 228.3 3.93985 229.72 6.54985C228.74 7.58985 227.3 7.69985 226.18 8.38985C225.61 8.74985 225.15 8.40985 224.71 7.98985C220.81 4.34985 216.18 4.16985 211.31 5.19985C210.53 5.36985 209.78 5.66985 209.14 6.16985C208.12 6.94985 207.51 7.94985 207.73 9.26985C207.94 10.6099 208.85 11.3899 210.11 11.6599C211.51 11.9499 212.95 12.0999 214.37 12.2799C217.06 12.6199 219.77 12.8499 222.45 13.2799C226.59 13.9399 229.28 16.3999 229.77 19.7999C230.43 24.3599 228.61 28.0499 224.69 29.9299C221.03 31.6799 217.11 31.7299 213.19 31.3599C210.56 31.1099 207.99 30.5099 205.64 29.2199C203.5 28.0399 201.73 26.4999 200.63 24.2899H200.62Z" fill="#00A3FF"/>
<path d="M172.72 8.58023C172.72 15.2402 172.73 21.6102 172.72 27.9802C172.72 30.9902 173.13 30.7702 169.87 30.7702C167.93 30.7702 167.9 30.7402 167.9 28.7602C167.89 20.0502 167.89 11.3502 167.9 2.64023C167.9 0.840232 167.95 0.940232 169.77 0.770232C171.86 0.570232 173.28 1.28023 174.66 2.93023C179.95 9.23023 185.41 15.3802 190.82 21.5902C191.17 21.9902 191.47 22.4702 192.3 22.8102C192.3 22.0502 192.3 21.4502 192.3 20.8502C192.3 14.7802 192.29 8.71023 192.3 2.64023C192.3 0.840232 192.34 0.810232 194.17 0.810232C197.61 0.810232 197.11 0.510232 197.12 3.72023C197.14 11.7902 197.12 19.8502 197.12 27.9202C197.12 28.5602 197.12 29.2002 197.1 29.8402C197.1 30.4002 196.8 30.7402 196.23 30.7602C194.26 30.8102 192.49 30.9902 190.89 29.0702C185.64 22.7402 180.14 16.6202 174.72 10.4302C174.21 9.84023 173.81 9.13023 172.72 8.60023V8.58023Z" fill="#00A3FF"/>
<path d="M81.4005 31.5101C78.6505 31.6301 75.9705 31.2401 73.4405 30.1401C68.8005 28.1301 65.9105 24.6401 64.9405 19.6701C64.4405 17.1401 64.4905 14.5901 65.0405 12.0601C66.2005 6.79014 69.3905 3.20014 74.3505 1.34014C79.3305 -0.529857 84.4005 -0.429857 89.2905 1.78014C99.5005 6.39014 100 19.0801 95.4505 25.2601C92.5005 29.2701 88.3305 30.9701 83.5605 31.5001C82.8505 31.5801 82.1205 31.5101 81.4005 31.5101ZM81.2505 27.3801C82.2005 27.3301 83.0005 27.3101 83.8005 27.2401C89.3705 26.7001 93.1405 22.8101 93.5705 17.2401C93.7305 15.1601 93.2305 13.2201 92.6705 11.2401C92.0105 8.91014 90.5605 7.31014 88.6005 6.18014C85.0805 4.15014 81.2805 3.67014 77.3305 4.75014C71.7705 6.27014 68.7805 10.5301 69.0205 16.5801C69.2405 22.1601 72.7105 26.1201 78.3005 27.1101C79.3205 27.2901 80.3605 27.3001 81.2405 27.3701L81.2505 27.3801Z" fill="#00A3FF"/>
<path d="M102.79 15.6904C102.79 11.3004 102.77 6.91043 102.79 2.52043C102.79 0.850434 102.84 0.810434 104.55 0.810434C109.26 0.800434 113.98 0.730434 118.69 0.840434C125.45 1.00043 130.25 5.50043 131.46 12.2004C132.17 16.1204 131.72 19.7804 130.06 23.3104C127.97 27.7404 124.25 30.0304 119.49 30.5204C114.4 31.0504 109.27 30.6904 104.17 30.7904C102.89 30.8104 102.78 30.0904 102.78 29.1104C102.8 24.6404 102.78 20.1704 102.78 15.7004L102.79 15.6904ZM107.31 15.6504C107.31 18.8504 107.33 22.0404 107.3 25.2404C107.3 26.1904 107.51 26.7304 108.62 26.7104C111.58 26.6504 114.55 26.8104 117.49 26.6204C123.16 26.2704 126.72 22.6504 127.18 16.9704C127.26 16.0204 127.27 15.0504 127.19 14.1004C126.75 8.37043 123.39 5.05043 117.63 4.80043C114.76 4.67043 111.87 4.73043 109 4.75043C107.35 4.75043 107.32 4.80043 107.31 6.53043C107.29 9.57043 107.31 12.6004 107.31 15.6404V15.6504Z" fill="#00A3FF"/>
<path d="M0.03 15.7495C0.03 11.2795 0.05 6.80953 0 2.33953C0 1.21953 0.34 0.769528 1.51 0.779528C7.34 0.839528 13.19 0.579528 19.01 0.899528C27.13 1.34953 29.27 7.79953 27.81 13.1695C26.85 16.6895 23.87 18.8195 20.51 19.0995C16.68 19.4195 12.84 19.2095 9.01 19.2495C5.18 19.2795 5.18 19.2495 5.18 22.9995C5.18 25.0795 5.11 27.1595 5.2 29.2295C5.26 30.5195 4.74 30.8795 3.53 30.8595C-0.72 30.7895 0.08 31.1795 0.04 27.4895C0 23.5795 0.04 19.6595 0.04 15.7495H0.03ZM12.37 15.1795C14.13 15.1795 15.88 15.1595 17.64 15.1795C18.62 15.1995 19.56 15.0395 20.45 14.6895C23.69 13.4095 24.62 8.56953 21.98 6.32953C20.83 5.35953 19.35 4.85953 17.82 4.83953C14.07 4.77953 10.31 4.82953 6.56 4.77953C5.53 4.76953 5.14 5.15953 5.16 6.18953C5.2 8.65953 5.23 11.1395 5.15 13.6095C5.11 14.9295 5.69 15.2295 6.86 15.1895C8.69 15.1295 10.53 15.1695 12.37 15.1695V15.1795Z" fill="#00A3FF"/>
<path d="M262.28 30.5403C261.99 30.6403 261.84 30.7403 261.69 30.7403C257.08 31.0203 257.12 31.0003 255.15 26.8303C253.45 23.2203 254.56 23.8403 250.48 23.7903C246.88 23.7503 243.29 23.8103 239.69 23.7703C238.7 23.7603 238 23.9703 237.66 24.9903C237.17 26.4903 236.07 27.7203 235.69 29.2903C235.43 30.3403 234.78 30.9103 233.6 30.7903C232.36 30.6603 231.07 30.9703 229.86 30.5603C229.71 29.6903 230.21 29.1003 230.51 28.4703C234.58 19.9103 238.66 11.3503 242.76 2.8103C243.12 2.0703 243.19 0.930302 244.27 0.850302C245.62 0.750301 246.99 0.770301 248.32 0.960301C248.95 1.0503 249.09 1.9303 249.33 2.5103C250.94 6.2403 252.67 9.9303 254.43 13.5703C256.83 18.5103 259.13 23.5103 261.58 28.4303C261.89 29.0603 262.36 29.6503 262.26 30.5403H262.28ZM239.59 19.5703H252.4C250.24 14.9003 248.18 10.4403 246.02 5.7603C243.82 10.4803 241.79 14.8503 239.59 19.5703Z" fill="#00A3FF"/>
<path d="M262.32 50.4001C262.29 51.0801 261.97 51.6301 261.45 52.0401C261.02 52.3901 260.55 52.7101 260.09 53.0201C244.21 63.9201 228.33 74.8201 212.44 85.7101C211.91 86.0701 211.4 86.4602 210.84 86.7602C209.67 87.3702 208.52 87.1001 207.87 86.1401C207.24 85.2201 207.41 83.9402 208.32 83.1101C208.73 82.7301 209.22 82.4501 209.68 82.1301C225.56 71.2301 241.44 60.3301 257.32 49.4301C257.97 48.9801 258.64 48.5001 259.38 48.2401C260.9 47.7101 262.39 48.8501 262.32 50.3901V50.4001Z" fill="#00A3FF"/>
<path d="M213.42 74.2002C212.68 73.9302 212.06 73.4302 211.72 72.6902C211.36 71.9102 211.4 71.1002 212.01 70.4502C212.44 69.9902 212.96 69.6102 213.49 69.2502C222.51 63.0602 231.53 56.8702 240.55 50.6902C240.88 50.4602 241.2 50.2102 241.55 50.0302C242.68 49.4302 243.8 49.5502 244.39 50.3002C244.96 51.0202 244.91 52.8502 244.23 53.5602C243.85 53.9602 243.36 54.2502 242.9 54.5702C234.01 60.6702 225.11 66.7502 216.24 72.8702C215.38 73.4602 214.43 73.8002 213.44 74.2202L213.42 74.2002Z" fill="#00A3FF"/>
<path d="M227 50.7298C227.9 50.6598 228.49 50.8798 228.92 51.7898C229.43 52.8698 228.88 53.6298 228.41 54.3898C228.14 54.8298 227.55 55.0898 227.09 55.4098C219.45 60.6698 211.81 65.9198 204.17 71.1598C203.65 71.5198 203.1 71.8998 202.52 72.1098C201.48 72.4898 200.64 72.0598 200.03 71.1898C199.47 70.3798 199.44 69.5098 200.08 68.7498C200.48 68.2698 201 67.8698 201.52 67.5098C209.22 62.1998 216.93 56.9098 224.63 51.6098C225.36 51.1098 226.05 50.5398 226.99 50.7298H227Z" fill="#00A3FF"/>
<path d="M228.33 43.2802C228.37 44.4402 227.48 45.0102 226.61 45.6102C221.87 48.8602 217.13 52.1202 212.39 55.3702C210.94 56.3602 209.49 57.3602 208.04 58.3402C207.58 58.6502 207.12 59.0002 206.61 59.1902C205.5 59.6102 204.6 59.1702 203.74 58.0802C202.87 56.9902 203.65 56.3002 204.26 55.6102C204.67 55.1402 205.24 54.8002 205.77 54.4402C211.75 50.3202 217.74 46.2102 223.74 42.1002C224.26 41.7402 224.79 41.3402 225.38 41.1302C226.94 40.5702 228.36 41.6102 228.35 43.2802H228.33Z" fill="#00A3FF"/>
<path d="M127.38 41.1699H135.71C141.89 41.1699 146.11 44.9799 146.11 50.6999C146.11 56.4199 141.89 60.2299 135.71 60.2299H127.38V41.1799V41.1699ZM135.54 57.2299C139.79 57.2299 142.53 54.6399 142.53 50.6999C142.53 46.7599 139.78 44.1699 135.54 44.1699H130.91V57.2299H135.54Z" fill="black"/>
<path d="M160.32 55.8099H150.79L148.91 60.2199H145.26L153.83 41.1699H157.31L165.91 60.2199H162.21L160.3 55.8099H160.32ZM159.15 53.0299L155.56 44.6999L151.99 53.0299H159.15Z" fill="black"/>
<path d="M169.62 44.1599H163.31V41.1699H179.48V44.1599H173.17V60.2199H169.63V44.1599H169.62Z" fill="black"/>
<path d="M191.91 55.8099H182.38L180.5 60.2199H176.85L185.42 41.1699H188.9L197.5 60.2199H193.8L191.89 55.8099H191.91ZM190.74 53.0299L187.15 44.6999L183.58 53.0299H190.74Z" fill="black"/>
</g>
<defs>
<clipPath id="clip0_244_2157">
<rect width="262.32" height="87.09" fill="white"/>
</clipPath>
</defs>
</svg>
