<svg width="64" height="72" viewBox="0 0 64 72" fill="none" xmlns="http://www.w3.org/2000/svg">
<g filter="url(#filter0_d_600_824)">
<path d="M29.5983 13C20.4392 13 13 20.4392 13 29.5983C13 38.7575 26.5936 52.3511 28.1478 53.8638C28.5415 54.2575 29.0803 54.4648 29.5983 54.4648C30.1164 54.4648 30.6137 54.2783 31.0074 53.9053C32.5616 52.4547 46.1967 39.4413 46.1967 29.6191C46.176 20.4392 38.7367 13 29.5983 13ZM29.5983 39.1305C24.3349 39.1305 20.0662 34.8617 20.0662 29.5983C20.0662 24.3349 24.3349 20.0662 29.5983 20.0662C34.8617 20.0662 39.1305 24.3349 39.1305 29.5983C39.1305 34.8617 34.8617 39.1305 29.5983 39.1305Z" fill="url(#paint0_linear_600_824)"/>
</g>
<defs>
<filter id="filter0_d_600_824" x="0" y="0" width="63.1963" height="71.4609" filterUnits="userSpaceOnUse" color-interpolation-filters="sRGB">
<feFlood flood-opacity="0" result="BackgroundImageFix"/>
<feColorMatrix in="SourceAlpha" type="matrix" values="0 0 0 0 0 0 0 0 0 0 0 0 0 0 0 0 0 0 127 0" result="hardAlpha"/>
<feOffset dx="2" dy="2"/>
<feGaussianBlur stdDeviation="7.5"/>
<feComposite in2="hardAlpha" operator="out"/>
<feColorMatrix type="matrix" values="0 0 0 0 0.137255 0 0 0 0 0.419608 0 0 0 0 0.847059 0 0 0 0.15 0"/>
<feBlend mode="multiply" in2="BackgroundImageFix" result="effect1_dropShadow_600_824"/>
<feBlend mode="normal" in="SourceGraphic" in2="effect1_dropShadow_600_824" result="shape"/>
</filter>
<linearGradient id="paint0_linear_600_824" x1="29.5983" y1="13" x2="29.5983" y2="54.4648" gradientUnits="userSpaceOnUse">
<stop offset="0.197917" stop-color="#009AFF"/>
<stop offset="1" stop-color="#8CA5FF"/>
</linearGradient>
</defs>
</svg>
