<svg width="111" height="130" viewBox="0 0 111 130" fill="none" xmlns="http://www.w3.org/2000/svg">
<g id="Vector" filter="url(#filter0_d_600_544)">
<path d="M53.03 13C30.941 13 13 30.941 13 53.03C13 75.1189 45.7836 107.903 49.5317 111.551C50.4813 112.5 51.7806 113 53.03 113C54.2794 113 55.4788 112.55 56.4283 111.651C60.1764 108.152 93.06 76.7681 93.06 53.08C93.01 30.941 75.069 13 53.03 13ZM53.03 76.0185C40.3363 76.0185 30.0415 65.7236 30.0415 53.03C30.0415 40.3363 40.3363 30.0415 53.03 30.0415C65.7236 30.0415 76.0185 40.3363 76.0185 53.03C76.0185 65.7236 65.7236 76.0185 53.03 76.0185Z" fill="url(#paint0_linear_600_544)"/>
</g>
<defs>
<filter id="filter0_d_600_544" x="0" y="0" width="110.06" height="130" filterUnits="userSpaceOnUse" color-interpolation-filters="sRGB">
<feFlood flood-opacity="0" result="BackgroundImageFix"/>
<feColorMatrix in="SourceAlpha" type="matrix" values="0 0 0 0 0 0 0 0 0 0 0 0 0 0 0 0 0 0 127 0" result="hardAlpha"/>
<feOffset dx="2" dy="2"/>
<feGaussianBlur stdDeviation="7.5"/>
<feComposite in2="hardAlpha" operator="out"/>
<feColorMatrix type="matrix" values="0 0 0 0 0.137255 0 0 0 0 0.419608 0 0 0 0 0.847059 0 0 0 0.15 0"/>
<feBlend mode="multiply" in2="BackgroundImageFix" result="effect1_dropShadow_600_544"/>
<feBlend mode="normal" in="SourceGraphic" in2="effect1_dropShadow_600_544" result="shape"/>
</filter>
<linearGradient id="paint0_linear_600_544" x1="53.03" y1="13" x2="53.03" y2="113" gradientUnits="userSpaceOnUse">
<stop offset="0.197917" stop-color="#009AFF"/>
<stop offset="1" stop-color="#8CA5FF"/>
</linearGradient>
</defs>
</svg>
